<mxfile host="app.diagrams.net" modified="2023-11-07T18:31:44.318Z" agent="Mozilla/5.0 (Macintosh; Intel Mac OS X 10_15_7) AppleWebKit/605.1.15 (KHTML, like Gecko) Version/17.0 Safari/605.1.15" version="22.0.8" etag="otMdL2-Rhu-AxBwXt_C8" type="github">
  <diagram name="Page-1" id="aMmdxLm4feqi-83Ok_aX">
    <mxGraphModel>
      <root>
        <mxCell id="0" />
        <mxCell id="1" parent="0" />
      </root>
    </mxGraphModel>
  </diagram>
</mxfile>
